<svg width="100%" height="100%" viewBox="0 0 95 95" fill="none" xmlns="http://www.w3.org/2000/svg">
<path d="M47.5 0C21.3 0 0 21.3 0 47.5C0 73.7 21.3 95 47.5 95C73.7 95 95 73.7 95 47.5C95 21.3 73.7 0 47.5 0ZM52.3 71.8V76.5C52.3 77.9 51.1 79.1 49.7 79.1H45.3C43.9 79.1 42.7 77.9 42.7 76.5V71.8C37.3 71.3 32.7 67.9 30.7 63.1C30.1 61.6 31 59.9 32.6 59.5L36.5 58.8C38.1 58.5 39.2 59 39.7 59.9C40.6 61.4 42.2 62.3 44 62.3H50.8C53.6 62.3 55.8 60.1 55.8 57.3C55.8 55.6 55 54.4 54.3 53.8C53.4 52.8 52.1 52.3 50.8 52.3H44.5C36.5 52.3 29.5 46 29.4 38C29.3 34 30.8 30.3 33.6 27.5C36 25.1 39.2 23.6 42.5 23.3V18.6C42.5 17.2 43.7 16 45.1 16H49.5C50.9 16 52.1 17.2 52.1 18.6V23.3C57.4 23.8 62 27.2 64.1 32C64.8 33.5 63.8 35.2 62.2 35.6L58.5 36.3C56.9 36.6 55.8 36.1 55.3 35.2C54.4 33.7 52.8 32.7 51 32.7H44.2C42.8 32.7 41.6 33.2 40.7 34.1C39.8 35 39.3 36.2 39.3 37.4C39.2 40.3 41.7 42.6 44.6 42.6H51.1C55 42.6 58.7 44.1 61.4 46.9C64.1 49.6 65.6 53.3 65.6 57.2C65.5 64.8 59.7 71.1 52.3 71.8Z" fill="current"/>
</svg>
