<svg width="100%" height="100%" viewBox="0 0 95 95" stroke="current" xmlns="http://www.w3.org/2000/svg">
<path d="M43.7998 29.7001H51.1998C55.1998 29.7001 58.3998 33.0001 58.3998 36.9001H64.9998C64.9998 29.3001 58.7998 23.1 51.0998 23.1H50.6998V15.3H44.0998V23.1H43.6998C36.0998 23.1 29.7998 29.3001 29.7998 36.9001C29.7998 44.5001 35.9998 50.7001 43.6998 50.7001H51.0998C55.0998 50.7001 58.2998 53.9001 58.2998 57.9001C58.2998 61.9001 55.0998 65.1 51.0998 65.1H43.6998C39.6998 65.1 36.4998 61.8001 36.4998 57.9001H29.8998C29.8998 65.5001 36.0998 71.7 43.7998 71.7H44.1998V79.5H50.7998V71.7H51.1998C58.7998 71.7 65.0998 65.5001 65.0998 57.9001C65.0998 50.3001 58.8998 44.1 51.1998 44.1H43.7998C39.7998 44.1 36.5998 40.8001 36.5998 36.9001C36.5998 33.0001 39.7998 29.7001 43.7998 29.7001Z" fill="current"/>
<path d="M47.5 0C21.3 0 0 21.3 0 47.5C0 73.7 21.3 95 47.5 95C73.7 95 95 73.7 95 47.5C95 21.3 73.7 0 47.5 0ZM47.5 88.4C25 88.4 6.6 70 6.6 47.5C6.6 25 25 6.6 47.5 6.6C70 6.6 88.4 25 88.4 47.5C88.4 70 70 88.4 47.5 88.4Z" fill="current"/>
</svg>
