<svg width="100%" height="100%" viewBox="0 0 144 144" fill="none" xmlns="http://www.w3.org/2000/svg">
<path d="M87.1974 100.561V144H107.465C108.42 143.997 109.335 143.615 110.01 142.937C110.685 142.26 111.065 141.341 111.068 140.383V82.8843H128.72C129.986 82.8843 130.381 82.0659 129.597 81.0675L66.4278 0.748024C66.2675 0.517109 66.054 0.3285 65.8055 0.198258C65.5569 0.0680167 65.2807 0 65.0003 0C64.72 0 64.4437 0.0680167 64.1952 0.198258C63.9466 0.3285 63.7331 0.517109 63.5728 0.748024L0.404125 81.0675C-0.38037 82.0659 0.0118771 82.8843 1.28108 82.8843H18.9322V140.383C18.9352 141.341 19.3154 142.259 19.9898 142.936C20.6643 143.614 21.5783 143.996 22.5325 144H42.8005V100.561H87.1974Z" fill="white"/>
</svg>
