<svg width="100%" height="100%" viewBox="0 0 144 144" fill="none" xmlns="http://www.w3.org/2000/svg" >
<path d="M105.693 144H81.5087V103.708H50.486V144H26.3049C24.0233 143.997 21.836 143.093 20.2226 141.486C18.6093 139.879 17.7016 137.7 17.6986 135.427V87.3113H6.43815C3.82634 87.3113 1.63807 86.0259 0.596167 83.8744C-0.445735 81.7228 -0.109729 79.2197 1.50818 77.1778L60.5521 2.68031C61.1958 1.85064 62.0209 1.17803 62.9647 0.713592C63.9084 0.249154 64.9461 0.00510915 65.9988 0V0C67.0514 0.00510915 68.0891 0.249154 69.0329 0.713592C69.9767 1.17803 70.8018 1.85064 71.4454 2.68031L130.489 77.1778C132.107 79.2197 132.449 81.7228 131.401 83.8744C130.354 86.0259 128.171 87.3113 125.559 87.3113H114.299V135.427C114.296 137.7 113.388 139.879 111.775 141.486C110.162 143.093 107.974 143.997 105.693 144V144ZM91.9757 133.566H103.835V76.8769H116.916L65.9988 12.6562L15.0924 76.8769H28.1628V133.566H40.0218V93.2738H91.9757V133.566Z" fill="white"/>
</svg>
