<svg width="100%" height="100%" viewBox="0 0 90 90" fill="none" xmlns="http://www.w3.org/2000/svg">
<path d="M15.4856 76.3675C15.2735 77.1453 15.4856 78.0645 16.122 78.7009C16.7584 79.3373 17.5363 79.5495 18.4555 79.3373L22.1324 78.3474C27.7186 76.8625 32.3855 73.3269 35.3553 68.3772C36.416 66.468 36.1332 64.0638 34.5775 62.5082L32.3148 60.2454C30.7591 58.6898 28.355 58.407 26.4458 59.4676C21.496 62.4375 17.9605 67.1044 16.4756 72.6905L15.4856 76.3675ZM28.0014 62.0132C28.7085 61.589 29.6278 61.6597 30.2642 62.2961L32.5269 64.5588C33.0926 65.1245 33.234 66.1144 32.8098 66.8215C30.2642 71.0642 26.2337 74.1047 21.4253 75.3775L18.7383 76.0846L19.4454 73.3976C20.6475 68.66 23.6881 64.6295 28.0014 62.0132Z" fill="white"/>
<path d="M66.2559 28.1428C63.1446 25.0316 57.9827 24.9609 54.8008 28.1428C51.6188 31.3248 51.6188 36.416 54.8008 39.598C57.912 42.7092 63.0739 42.78 66.2559 39.598C69.4379 36.416 69.3672 31.2541 66.2559 28.1428ZM56.9928 37.4059C55.0129 35.426 55.0129 32.1734 56.9928 30.1935C58.9727 28.2136 62.2254 28.2136 64.2053 30.1935C66.1852 32.1734 66.1852 35.426 64.2053 37.4059C62.2254 39.3858 58.9727 39.3858 56.9928 37.4059Z" fill="white"/>
<path d="M64.4883 52.9623L67.3874 50.7703C72.3372 46.669 75.7313 41.0122 77.0748 34.7189L80.0446 20.7182C80.3982 19.0919 79.9032 17.3241 78.7011 16.122C77.4991 14.92 75.802 14.3543 74.1049 14.7785L60.4578 17.5362C54.0938 18.6676 48.2955 22.2032 44.1236 27.2236L41.8609 30.3349C36.4869 29.7692 31.0421 31.537 27.1531 35.426L22.4861 40.093C21.7083 40.8708 21.4255 41.8607 21.4962 42.9214C21.6376 43.6285 21.9912 44.2649 22.4154 44.6891C22.6276 44.9013 22.9811 45.1134 23.264 45.2548L31.6078 49.6389C31.82 53.1037 33.2342 56.3564 35.7798 58.902C38.3253 61.4476 41.6487 62.7911 45.0429 63.0739L49.4269 71.4178C49.5683 71.7006 49.7805 72.0542 49.9926 72.2663C50.4876 72.7613 51.124 73.1148 51.7604 73.1856C52.821 73.3977 53.811 72.9734 54.5888 72.1956L59.2557 67.5287C63.2155 63.7103 65.054 58.3363 64.4883 52.9623ZM24.6782 42.7092C24.6075 42.6385 24.5368 42.5678 24.466 42.4971C24.3953 42.4264 24.466 42.3557 24.5368 42.285L29.2037 37.6181C31.9614 34.8604 35.7798 33.3047 39.5981 33.3047L34.3655 40.3758C34.0827 40.8001 33.7999 41.2243 33.517 41.6486C33.3756 41.79 33.3049 42.0021 33.2342 42.2143C33.0928 42.4971 33.022 42.7092 32.8806 42.9921C32.8099 43.2042 32.6685 43.4871 32.5978 43.6992C32.5271 43.9113 32.5271 44.0528 32.3856 44.1942C32.1028 44.9013 31.8907 45.6791 31.7492 46.5276L24.6782 42.7092ZM51.9018 58.4777C51.8311 58.5484 51.8311 58.5484 51.6897 58.5484C51.4068 58.6899 51.2654 58.8313 50.9826 58.9727L50.9118 59.0434C46.5985 61.094 41.3659 60.2455 37.9718 56.8514C34.507 53.3866 33.7291 48.0833 35.7798 43.9113L35.8505 43.8406C35.9919 43.5578 36.0626 43.3456 36.2747 43.1335C36.3454 43.0628 36.3454 43.0628 36.4162 42.9921C36.5576 42.7092 36.8404 42.4264 36.9818 42.1436L37.4768 41.5072L45.3257 30.9713L46.5278 29.0621C50.2754 24.6073 55.3666 21.496 61.0235 20.3647L74.6706 17.607C75.3777 17.4655 76.0141 17.6777 76.5091 18.1726C77.0041 18.6676 77.2162 19.304 77.0748 20.0111L74.1049 34.1533C72.9029 39.7394 69.7916 44.8306 65.4782 48.4368L63.8519 49.6389L52.6089 57.912C52.4675 58.1949 52.1846 58.3363 51.9018 58.4777ZM52.5382 70.145C52.4675 70.2157 52.3261 70.2157 52.3261 70.2157C52.2553 70.145 52.1139 70.145 52.1139 70.0036L48.437 62.9325C49.2855 62.7911 50.0633 62.5789 50.7704 62.2961C50.9826 62.2254 51.0533 62.1547 51.2654 62.084C51.4775 62.0133 51.7604 61.8718 51.9725 61.8011C52.2553 61.6597 52.4675 61.589 52.7503 61.4476C52.9625 61.3769 53.1039 61.2354 53.316 61.1647C53.7403 60.8819 54.1645 60.5991 54.5888 60.3162L61.6599 55.0836C61.6599 58.902 60.1042 62.7204 57.3465 65.4781L52.6089 70.2157L52.5382 70.145Z" fill="white"/>
</svg>
