<svg width="100%" height="100%" viewBox="0 0 90 90" fill="none" xmlns="http://www.w3.org/2000/svg">
<path d="M34.1531 64.727C35.4966 63.8077 36.3451 62.2521 36.3451 60.6964C36.3451 58.0094 34.2238 55.8881 31.5368 55.8881C29.8397 55.8881 28.2841 56.7366 27.4356 58.1509L15.0612 77.4549L34.1531 64.727Z" fill="white"/>
<path d="M53.7402 65.6462L58.1949 61.1914C61.7305 57.6559 63.3568 52.6354 62.5083 47.6857L65.9024 45.1401C70.4279 41.4631 73.3977 36.372 74.6705 30.7151L77.499 17.2801C77.9939 14.9466 75.9433 12.7546 73.4685 13.2496L60.4577 15.9366C54.7301 17.1387 49.5682 20.1792 45.8913 24.7047L43.2043 28.3817C38.2545 27.5331 33.2341 29.1595 29.6278 32.7657L25.1731 37.2205C24.3245 38.069 24.5367 39.4125 25.5973 39.9075L34.224 44.433C34.1533 47.615 35.4261 50.7262 37.8303 53.1304C40.2344 55.5346 43.4164 56.7366 46.5277 56.7366L51.0532 65.3633C51.5481 66.2826 52.9624 66.424 53.7402 65.6462ZM55.9322 34.4628C53.528 32.0586 53.528 28.0988 55.9322 25.6947C58.3364 23.2905 62.2962 23.2905 64.7003 25.6947C67.1045 28.0988 67.1045 32.0586 64.7003 34.4628C62.3669 36.9377 58.4071 36.9377 55.9322 34.4628Z" fill="white"/>
</svg>
